<svg width="64" height="64" viewBox="0 0 32 32" fill="none" xmlns="http://www.w3.org/2000/svg">
    <defs>
        <filter id="shadow" width="32" height="32">
        <feOffset in="SourceGraphic" dx="1" dy="1" result="offsetOut" />
        <feColorMatrix
            in="offsetOut"
            type="matrix"
            values="0.2 0 0 0 0 0 0.2 0 0 0 0 0 0.2 0 0 0 0 0 1 0"
            result="matrixOut"
        />
        <feGaussianBlur in="matrixOut" stdDeviation="1" result="blurOut" />
        <feBlend in="SourceGraphic" in2="blurOut" mode="normal" />
        </filter>
    </defs>
    <path stroke="#FD201D" stroke-width="1" filter="url(#shadow)" d="M15.4545 12.22C14.6386 12.338 13.8827 12.7168 13.2998 13.2998C12.7168 13.8827 12.338 14.6386 12.22 15.4545H13.2727V16.5455H12.22C12.3379 17.3614 12.7167 18.1174 13.2997 18.7003C13.8826 19.2833 14.6386 19.6621 15.4545 19.78V18.7273H16.5455V19.78C17.3614 19.6621 18.1174 19.2833 18.7003 18.7003C19.2833 18.1174 19.6621 17.3614 19.78 16.5455H18.7273V15.4545H19.78C19.6621 14.6386 19.2833 13.8826 18.7003 13.2997C18.1174 12.7167 17.3614 12.3379 16.5455 12.22V13.2727H15.4545V12.22ZM11.1209 15.4545C11.245 14.3479 11.7414 13.3162 12.5288 12.5288C13.3162 11.7414 14.3479 11.245 15.4545 11.1209V10H16.5455V11.1209C17.6521 11.245 18.6838 11.7414 19.4712 12.5288C20.2586 13.3162 20.755 14.3479 20.8791 15.4545H22V16.5455H20.8791C20.755 17.6521 20.2586 18.6838 19.4712 19.4712C18.6838 20.2586 17.6521 20.755 16.5455 20.8791V22H15.4545V20.8791C14.3479 20.755 13.3162 20.2586 12.5288 19.4712C11.7414 18.6838 11.245 17.6521 11.1209 16.5455H10V15.4545H11.1209Z" />
    <path stroke="#FD201D" stroke-width="1" filter="url(#shadow)" d="M16.9791 16.9791C17.2387 16.7194 17.3846 16.3672 17.3846 16C17.3846 15.6328 17.2387 15.2806 16.9791 15.0209C16.7194 14.7613 16.3672 14.6154 16 14.6154C15.6328 14.6154 15.2806 14.7613 15.0209 15.0209C14.7613 15.2806 14.6154 15.6328 14.6154 16C14.6154 16.3672 14.7613 16.7194 15.0209 16.9791C15.2806 17.2387 15.6328 17.3846 16 17.3846C16.3672 17.3846 16.7194 17.2387 16.9791 16.9791Z" />
    <path fill="white" d="M15.4545 12.22C14.6386 12.338 13.8827 12.7168 13.2998 13.2998C12.7168 13.8827 12.338 14.6386 12.22 15.4545H13.2727V16.5455H12.22C12.3379 17.3614 12.7167 18.1174 13.2997 18.7003C13.8826 19.2833 14.6386 19.6621 15.4545 19.78V18.7273H16.5455V19.78C17.3614 19.6621 18.1174 19.2833 18.7003 18.7003C19.2833 18.1174 19.6621 17.3614 19.78 16.5455H18.7273V15.4545H19.78C19.6621 14.6386 19.2833 13.8826 18.7003 13.2997C18.1174 12.7167 17.3614 12.3379 16.5455 12.22V13.2727H15.4545V12.22ZM11.1209 15.4545C11.245 14.3479 11.7414 13.3162 12.5288 12.5288C13.3162 11.7414 14.3479 11.245 15.4545 11.1209V10H16.5455V11.1209C17.6521 11.245 18.6838 11.7414 19.4712 12.5288C20.2586 13.3162 20.755 14.3479 20.8791 15.4545H22V16.5455H20.8791C20.755 17.6521 20.2586 18.6838 19.4712 19.4712C18.6838 20.2586 17.6521 20.755 16.5455 20.8791V22H15.4545V20.8791C14.3479 20.755 13.3162 20.2586 12.5288 19.4712C11.7414 18.6838 11.245 17.6521 11.1209 16.5455H10V15.4545H11.1209Z" />
    <path fill="white" d="M16.9791 16.9791C17.2387 16.7194 17.3846 16.3672 17.3846 16C17.3846 15.6328 17.2387 15.2806 16.9791 15.0209C16.7194 14.7613 16.3672 14.6154 16 14.6154C15.6328 14.6154 15.2806 14.7613 15.0209 15.0209C14.7613 15.2806 14.6154 15.6328 14.6154 16C14.6154 16.3672 14.7613 16.7194 15.0209 16.9791C15.2806 17.2387 15.6328 17.3846 16 17.3846C16.3672 17.3846 16.7194 17.2387 16.9791 16.9791Z" />
</svg>
